<?xml version="1.0" standalone="no"?>
<!DOCTYPE svg PUBLIC "-//W3C//DTD SVG 20010904//EN"
 "http://www.w3.org/TR/2001/REC-SVG-20010904/DTD/svg10.dtd">
<svg version="1.0" xmlns="http://www.w3.org/2000/svg"
 width="15.000000pt" height="15.000000pt" viewBox="0 0 15.000000 15.000000"
 preserveAspectRatio="xMidYMid meet">

<g transform="translate(0.000000,15.000000) scale(0.100000,-0.100000)"
fill="#ff0000" stroke="none">
<path d="M60 130 c0 -6 -8 -10 -17 -8 -12 2 -17 -3 -15 -14 2 -10 -2 -18 -8
-18 -5 0 -10 -7 -10 -15 0 -8 5 -15 10 -15 6 0 10 -8 8 -17 -2 -12 3 -17 15
-15 9 2 17 -2 17 -8 0 -5 7 -10 15 -10 8 0 15 5 15 10 0 6 8 10 18 8 11 -2 16
3 14 15 -2 9 2 17 8 17 5 0 10 7 10 15 0 8 -5 15 -10 15 -6 0 -10 8 -8 18 2
11 -3 16 -14 14 -10 -2 -18 2 -18 8 0 5 -7 10 -15 10 -8 0 -15 -5 -15 -10z
m29 -66 c-9 -11 -15 -12 -25 -3 -11 9 -12 15 -3 25 9 11 15 12 25 3 11 -9 12
-15 3 -25z"/>
</g>
</svg>
